<svg xmlns="http://www.w3.org/2000/svg" width="142" height="38" fill="none" viewBox="0 0 142 38"><g clip-path="url(#a)"><path fill="#fff" d="M56.481 14.515h1.93v8.89h-1.93v-1.281c-.733 1.014-1.77 1.511-3.128 1.511-1.233 0-2.27-.444-3.146-1.35-.876-.908-1.305-2.027-1.305-3.325 0-1.316.43-2.418 1.305-3.325.876-.906 1.913-1.35 3.146-1.35 1.358 0 2.395.497 3.128 1.493zm-2.824 7.29c.804 0 1.483-.267 2.02-.8.536-.552.804-1.227.804-2.045q0-1.227-.804-2.027c-.537-.551-1.216-.818-2.02-.818-.805 0-1.484.267-2.02.818q-.804.8-.804 2.027c0 .817.268 1.493.804 2.044.536.534 1.215.8 2.02.8m10.26-3.68c1.377.303 3.164.871 3.128 2.774 0 .853-.34 1.528-1 2.008-.662.48-1.484.73-2.485.73-1.77 0-3.075-.783-3.647-2.08l1.663-.96q.456 1.28 1.984 1.28c1.019 0 1.52-.338 1.52-.996 0-.57-.751-.907-1.699-1.138-1.34-.338-3.146-.871-3.11-2.738 0-.818.304-1.475.93-1.973.625-.498 1.412-.747 2.34-.747 1.485 0 2.682.694 3.308 1.85l-1.627.906c-.304-.676-.876-1.014-1.68-1.014-.733 0-1.305.32-1.305.943 0 .586.751.889 1.68 1.155m9.733-1.761h-2.216v4.267c0 1.137.75 1.12 2.216 1.049v1.724c-2.949.356-4.146-.444-4.146-2.773v-4.267h-1.645v-1.849h1.645v-1.92l1.93-.569v2.49h2.216zm8.426-1.848h1.93v8.89h-1.93v-1.281c-.732 1.014-1.77 1.511-3.128 1.511-1.233 0-2.27-.444-3.145-1.35-.876-.908-1.306-2.027-1.306-3.325 0-1.316.43-2.418 1.306-3.325.875-.906 1.912-1.35 3.145-1.35 1.359 0 2.396.497 3.128 1.493zm-2.824 7.29c.804 0 1.484-.267 2.02-.8.536-.552.804-1.227.804-2.045q0-1.227-.804-2.027c-.536-.551-1.216-.818-2.02-.818s-1.483.267-2.02.818q-.804.8-.804 2.027c0 .817.268 1.493.804 2.044.537.534 1.216.8 2.02.8m15.01-3.858v5.458h-1.93v-5.262c0-1.333-.769-2.062-2.002-2.062-1.359 0-2.27.835-2.27 2.56v4.764h-1.93v-8.889h1.93v1.138c.59-.907 1.501-1.369 2.77-1.369 2.056 0 3.432 1.387 3.432 3.662m9.063-3.431h1.93v8.89h-1.93v-1.281c-.733 1.014-1.77 1.511-3.129 1.511-1.233 0-2.27-.444-3.145-1.35-.876-.908-1.305-2.027-1.305-3.325 0-1.316.429-2.418 1.305-3.325.875-.906 1.912-1.35 3.145-1.35 1.359 0 2.396.497 3.129 1.493zm-2.825 7.29c.805 0 1.484-.267 2.02-.8.536-.552.805-1.227.805-2.045q0-1.227-.805-2.027c-.536-.551-1.215-.818-2.02-.818s-1.483.267-2.02.818q-.804.8-.804 2.027c0 .817.268 1.493.805 2.044.536.534 1.215.8 2.019.8m19.611-3.858v5.458h-1.931v-5.262c0-1.334-.768-2.062-2.001-2.062-1.36 0-2.272.835-2.272 2.56v4.764h-1.929V10.96h1.929v4.693c.591-.907 1.502-1.369 2.771-1.369 2.056 0 3.433 1.387 3.433 3.662m8.05-3.431h1.93v8.888h-1.93v-1.137c-.59.906-1.501 1.368-2.77 1.368-2.056 0-3.433-1.386-3.433-3.662v-5.458h1.931v5.263c0 1.333.769 2.062 2.002 2.062 1.359 0 2.27-.836 2.27-2.56zm12.249 1.12c.875.907 1.304 2.009 1.304 3.325 0 1.297-.429 2.417-1.304 3.324-.876.907-1.913 1.351-3.146 1.351-1.359 0-2.395-.498-3.129-1.511v1.28h-1.93V10.96h1.93v4.817c.734-.995 1.77-1.493 3.129-1.493 1.233 0 2.27.444 3.146 1.351m-3.45 6.169c.804 0 1.483-.267 2.019-.8.536-.551.805-1.227.805-2.044q0-1.227-.805-2.027c-.536-.551-1.215-.818-2.019-.818-.805 0-1.484.267-2.02.818q-.805.8-.805 2.027c0 .817.269 1.493.805 2.044.536.533 1.215.8 2.02.8M36.692 24.19l-.088.293-.029.093-.114.35-.027.079q-.06.18-.127.358l-.03.083q-.065.175-.133.348l-.035.087q-.069.173-.141.345l-.037.086q-.07.165-.144.327l-.041.09q-.074.16-.15.319l-.045.094q-.075.156-.155.31l-.05.096-.163.308-.049.09q-.085.156-.175.311l-.053.093-.18.303-.056.09q-.09.146-.182.29l-.063.098-.182.275-.07.103q-.091.135-.187.267l-.073.104-.193.263-.075.1-.2.26-.079.1-.21.259-.08.096a20 20 0 0 1-.497.57l-.11.12a20 20 0 0 1-.844.86l-.097.092-.238.22q-.057.053-.116.105a19 19 0 0 1-.554.478l-.122.1a21 21 0 0 1-1.094.827 17 17 0 0 1-.632.424l-.125.08-.27.167-.116.07-.269.158-.117.067-.277.154-.113.061q-.144.078-.29.153l-.105.053-.312.155-.086.041q-.166.079-.333.155l-.09.04-.351.153-.076.032q-.178.075-.36.146l-.072.028q-.177.069-.355.135l-.075.026q-.178.065-.358.126l-.073.024q-.183.061-.366.119l-.071.022q-.186.056-.373.11l-.069.02q-.192.053-.386.103l-.058.015q-.206.054-.415.101l-.027.007q-.222.051-.447.096l-.014.003q-.22.045-.442.084l-.036.007q-.213.037-.426.07l-.046.007q-.21.03-.421.058l-.05.007q-.21.026-.423.048l-.049.005q-.215.021-.431.038l-.042.003q-.223.016-.445.028l-.03.002q-.233.01-.465.017h-.013a19 19 0 0 1-.969 0h-.013q-.233-.006-.464-.017l-.03-.002a19 19 0 0 1-.446-.028l-.042-.003a20 20 0 0 1-.43-.038l-.05-.005a19 19 0 0 1-.423-.048l-.05-.007q-.21-.027-.42-.058l-.046-.007a20 20 0 0 1-.425-.07l-.039-.007a19 19 0 0 1-.438-.083l-.017-.004q-.225-.045-.446-.096l-.03-.007a19 19 0 0 1-.413-.1l-.058-.016q-.195-.05-.386-.104l-.07-.02-.37-.109-.073-.022-.364-.118-.076-.026q-.18-.06-.356-.124l-.076-.028-.352-.133-.077-.03-.355-.144-.083-.035q-.173-.074-.345-.15l-.093-.042-.33-.153-.09-.044q-.156-.075-.31-.152l-.106-.055-.288-.151-.115-.063q-.139-.075-.276-.153l-.117-.067-.269-.158-.116-.07a18 18 0 0 1-1.025-.67 26 26 0 0 1-.515-.374A19 19 0 0 1 5.51 32.6l-.096-.091a18 18 0 0 1-.845-.86l-.11-.12-.196-.22-.1-.115-.2-.236-.083-.1q-.105-.127-.208-.256l-.081-.103-.192-.248-.084-.113-.186-.253-.081-.114-.179-.256-.078-.116-.175-.263-.07-.11-.175-.277-.06-.1q-.09-.146-.176-.294l-.058-.102-.17-.304-.055-.098-.156-.296-.057-.11-.149-.298-.051-.106-.143-.305-.048-.104-.14-.318-.039-.092-.14-.34-.035-.088q-.068-.172-.133-.348L.73 25.36l-.125-.354-.027-.08q-.058-.173-.114-.35l-.03-.092-.087-.294a1.7 1.7 0 0 1 1.014-2.018c4.093-1.608 10.26-2.631 17.159-2.631s13.065 1.023 17.158 2.631a1.7 1.7 0 0 1 1.014 2.018M.347 13.683q.043-.15.089-.296l.027-.088q.056-.178.116-.355l.025-.075.128-.36.03-.08q.065-.178.134-.354l.033-.083q.07-.174.142-.346l.036-.084q.07-.164.144-.327l.044-.097q.071-.154.145-.307l.05-.106.152-.302.052-.102.16-.302.053-.097.17-.303.06-.102q.086-.15.176-.297l.058-.094.176-.282.07-.108.176-.265.077-.114.18-.259.08-.11q.091-.128.187-.256l.079-.105q.098-.13.198-.257l.08-.1q.102-.13.209-.26l.08-.096.205-.241.093-.107q.101-.115.204-.228l.1-.11q.104-.112.207-.22l.106-.111a19 19 0 0 1 .537-.534l.096-.092a19 19 0 0 1 1.26-1.086l.116-.091.24-.183.132-.099a19 19 0 0 1 1.403-.942l.115-.07.274-.16.11-.062q.139-.08.28-.156l.114-.062q.143-.077.288-.151l.107-.055q.153-.077.308-.152l.09-.044q.165-.08.331-.154l.093-.041q.172-.078.345-.15l.083-.036q.177-.073.355-.144l.077-.03q.176-.068.352-.133l.076-.027q.177-.065.356-.125l.076-.025q.18-.06.364-.118l.072-.022q.185-.057.372-.11l.069-.02q.192-.054.386-.104l.058-.015q.206-.052.413-.1l.03-.007q.221-.05.446-.097l.017-.003q.218-.044.438-.084l.04-.006q.21-.038.424-.07l.045-.007q.21-.031.421-.059l.05-.006q.21-.026.423-.048l.05-.005q.213-.021.43-.038l.042-.003q.222-.016.445-.028l.03-.002q.233-.012.465-.018h.013a20 20 0 0 1 .969 0h.013q.232.006.465.018l.03.002q.223.011.445.028l.042.003q.216.017.431.038l.049.005q.212.021.423.048l.05.006q.21.027.421.059l.046.007q.213.033.426.07l.036.006q.222.04.442.084l.014.003q.225.046.447.097l.027.006q.209.048.415.101l.059.015q.193.05.386.104l.068.02q.188.053.373.11l.07.022q.184.057.367.118l.073.024q.18.061.358.126l.075.027q.178.066.355.134l.073.029q.18.07.36.146l.075.031q.176.074.35.153l.09.04q.168.077.334.156l.086.041q.156.075.312.154l.104.054q.147.075.291.152l.112.06.282.158.11.062.273.16.115.07.27.168.125.08a18 18 0 0 1 .772.523 19 19 0 0 1 .957.73l.115.095a19 19 0 0 1 .912.805l.097.092a20 20 0 0 1 .537.534l.105.11.206.22.101.11q.105.115.206.232l.09.103q.104.12.207.243l.077.092.212.263.077.097q.105.133.207.268l.07.093.194.265.071.1.188.27.07.101.182.277.063.097.184.293.052.085q.092.152.182.306l.053.092q.09.156.175.312l.048.088q.085.156.167.314l.046.09q.08.155.156.313l.045.093q.078.16.151.32l.038.084q.076.168.148.337l.033.077q.074.174.144.35l.033.083.135.354.028.076q.066.18.129.364l.025.075q.06.177.116.355l.028.088q.046.147.088.296a1.7 1.7 0 0 1-1.014 2.017c-4.093 1.608-10.26 2.632-17.158 2.632S5.454 17.31 1.36 15.701a1.7 1.7 0 0 1-1.013-2.017"/><path fill="#b9bbbd" d="M34.385 21.705c-1.32 7.527-7.92 13.25-15.865 13.25S3.974 29.231 2.655 21.704c4.044-1.337 9.658-2.166 15.865-2.166 6.206 0 11.82.829 15.865 2.166m-31.73-5.538c1.319-7.527 7.92-13.25 15.865-13.25s14.546 5.723 15.865 13.25c-4.045 1.337-9.659 2.166-15.865 2.166-6.207 0-11.82-.829-15.865-2.166"/><path fill="#8e9092" d="M31.659 20.937c-.97 6.35-6.483 11.217-13.14 11.217-6.655 0-12.168-4.866-13.138-11.217 3.685-.88 8.227-1.399 13.139-1.399s9.453.52 13.139 1.4M5.38 16.933c.97-6.35 6.483-11.216 13.139-11.216s12.169 4.866 13.139 11.217c-3.686.88-8.227 1.398-13.14 1.398-4.911 0-9.453-.519-13.138-1.399"/><path fill="#656668" d="M28.895 20.375c-.704 5.073-5.08 8.98-10.375 8.98s-9.671-3.907-10.376-8.98c3.1-.533 6.63-.835 10.376-.835s7.276.302 10.375.835M8.144 17.498c.705-5.073 5.081-8.98 10.376-8.98s9.67 3.907 10.375 8.98c-3.1.534-6.63.836-10.375.836s-7.276-.302-10.376-.836"/><path fill="#231f20" d="M26.11 19.973c-.51 3.717-3.713 6.583-7.59 6.583-3.878 0-7.081-2.866-7.59-6.583 2.37-.28 4.925-.433 7.59-.433s5.22.153 7.59.433M10.93 17.9c.509-3.717 3.713-6.582 7.59-6.582s7.08 2.865 7.59 6.582c-2.37.28-4.925.433-7.59.433s-5.22-.153-7.59-.433"/></g><defs><clipPath id="a"><path fill="#fff" d="M0 0h142v38H0z"/></clipPath></defs></svg>