<svg xmlns="http://www.w3.org/2000/svg" viewBox="0 0 60 60">
<path fill="#2D68C4" fill-rule="evenodd" clip-rule="evenodd" d="M2.61744 23.681C-0.872479 27.1709 -0.872479 32.8291 2.61744 36.319L15.3967 49.0983C16.0222 49.7238 17.0918 49.2808 17.0918 48.3962V23.9572C17.0918 23.6938 17.1964 23.4413 17.3826 23.2551L24.3332 16.3045C24.9587 15.6789 26.0283 16.122 26.0283 17.0066V26.1134C26.0283 26.998 27.0978 27.4411 27.7233 26.8155L34.6739 19.8649C34.8601 19.6787 34.9647 19.4262 34.9647 19.1628V1.50395C31.4917 -0.82139 26.7486 -0.450227 23.681 2.61744L2.61744 23.681ZM45.5963 11.8947C44.9708 11.2692 43.9012 11.7122 43.9012 12.5968V34.5534C43.9012 34.8168 43.7966 35.0694 43.6104 35.2556L36.6598 42.2062C36.0343 42.8317 34.9647 42.3887 34.9647 41.5041V32.3972C34.9647 31.5126 33.8952 31.0696 33.2697 31.6951L26.3191 38.6457C26.1329 38.8319 26.0283 39.0845 26.0283 39.3478V58.4558C26.0283 58.833 26.2404 59.1822 26.5891 59.326C29.8263 60.6608 33.6886 60.013 36.319 57.3826L57.3826 36.319C60.8725 32.8291 60.8725 27.1709 57.3826 23.681L45.5963 11.8947Z"/>
</svg>
