<?xml version="1.0" encoding="utf-8"?>
<!-- Generator: Adobe Illustrator 23.1.0, SVG Export Plug-In . SVG Version: 6.00 Build 0)  -->
<svg version="1.1" id="Layer_1" xmlns="http://www.w3.org/2000/svg" xmlns:xlink="http://www.w3.org/1999/xlink" x="0px" y="0px"
	 viewBox="0 0 141.7 48.3" style="enable-background:new 0 0 141.7 48.3;" xml:space="preserve">
<style type="text/css">
	.st0{fill-rule:evenodd;clip-rule:evenodd;fill:#2D68C4;}
	.st1{fill:#FFFFFF;}
</style>
<path class="st0" d="M2.1,19.1c-0.7,0.7-1.2,1.5-1.6,2.3C0.2,22.3,0,23.2,0,24.1s0.2,1.9,0.5,2.8s0.9,1.7,1.6,2.3l10.3,10.3
	c0.5,0.5,1.4,0.1,1.4-0.6V19.3c0-0.2,0.1-0.4,0.2-0.6l5.6-5.6c0.5-0.5,1.4-0.1,1.4,0.6V21c0,0.7,0.9,1.1,1.4,0.6l5.6-5.6
	c0.1-0.1,0.2-0.4,0.2-0.6V1.2c-1.4-0.9-3-1.3-4.7-1.2c-1.7,0.2-3.2,0.9-4.4,2.1L2.1,19.1z M36.7,9.6c-0.5-0.5-1.4-0.1-1.4,0.6v17.7
	c0,0.2-0.1,0.4-0.2,0.6L29.5,34c-0.5,0.5-1.4,0.1-1.4-0.6v-7.3c0-0.7-0.9-1.1-1.4-0.6l-5.6,5.6c-0.1,0.1-0.2,0.4-0.2,0.6V47
	c0,0.3,0.2,0.6,0.5,0.7c1.3,0.5,2.8,0.7,4.2,0.4c1.4-0.3,2.7-1,3.7-2l16.9-16.9c1.3-1.3,2.1-3.2,2.1-5.1s-0.8-3.7-2.1-5.1L36.7,9.6z
	"/>
<path class="st1" d="M58.9,32.3V10.6h3.9v8.7h10.6v-8.7h3.9v21.7h-3.9v-9.7H62.8v9.7H58.9z M85.5,22.6h9.1c-0.2-1.2-0.7-2.1-1.5-2.9
	c-0.9-0.7-1.9-1.1-3-1.1c-1.1,0-2,0.4-2.9,1.1C86.2,20.5,85.7,21.4,85.5,22.6z M81.6,24c0-2.4,0.8-4.4,2.5-6.1
	c1.7-1.7,3.7-2.5,6.1-2.5c2.2,0,4.1,0.8,5.6,2.5c1.6,1.7,2.3,3.7,2.3,6l-0.1,1.4H85.5c0.3,1.3,0.9,2.3,1.8,3c0.9,0.7,2.1,1,3.4,1
	c1.8,0,3.4-0.5,4.8-1.4l1.5,2.8c-1.9,1.3-4,2-6.3,2c-2.5,0-4.6-0.8-6.3-2.3C82.5,28.8,81.6,26.7,81.6,24z M102.5,32.3V10.6h9.1
	c3.1,0,5.5,0.8,7.1,2.3c1.7,1.5,2.5,3.5,2.5,5.9c0,1.5-0.4,2.9-1.2,4.2c-0.8,1.3-1.9,2.3-3.3,2.9l4.8,6.3h-4.8l-3.8-5.2
	c-0.6,0-1.8,0.1-3.5,0.1h-3.1v5.2H102.5z M106.4,23.8h5.5c1.6,0,2.9-0.5,3.9-1.4c1-0.9,1.4-2.1,1.4-3.5c0-1.4-0.5-2.6-1.4-3.5
	c-1-0.9-2.2-1.4-3.8-1.4h-5.5V23.8z M124.1,24c0-2.4,0.9-4.4,2.6-6.1c1.7-1.7,3.8-2.5,6.2-2.5c2.4,0,4.5,0.9,6.2,2.5
	c1.7,1.7,2.6,3.7,2.6,6.1c0,2.4-0.9,4.4-2.6,6.1c-1.7,1.7-3.8,2.5-6.2,2.5c-2.4,0-4.5-0.8-6.2-2.5C124.9,28.4,124.1,26.4,124.1,24z
	 M127.9,24c0,1.4,0.5,2.6,1.5,3.6c1,1,2.2,1.4,3.6,1.4c1.4,0,2.6-0.5,3.6-1.4c1-1,1.5-2.2,1.5-3.6c0-1.4-0.5-2.6-1.5-3.6
	c-1-1-2.2-1.5-3.6-1.5c-1.4,0-2.6,0.5-3.6,1.5C128.4,21.5,127.9,22.6,127.9,24z"/>
<path class="st1" d="M85.8,43.9l0.6-0.1c0,0.2,0.1,0.4,0.2,0.6c0.1,0.1,0.3,0.3,0.5,0.4c0.2,0.1,0.5,0.1,0.7,0.1
	c0.2,0,0.4,0,0.6-0.1c0.2-0.1,0.3-0.2,0.4-0.3c0.1-0.1,0.1-0.3,0.1-0.4c0-0.1,0-0.3-0.1-0.4c-0.1-0.1-0.2-0.2-0.4-0.3
	c-0.1,0-0.4-0.1-0.8-0.2c-0.4-0.1-0.7-0.2-0.9-0.3c-0.2-0.1-0.4-0.2-0.5-0.4C86,42.3,86,42.1,86,41.9c0-0.2,0.1-0.5,0.2-0.7
	c0.1-0.2,0.3-0.4,0.6-0.5c0.3-0.1,0.6-0.2,0.9-0.2c0.3,0,0.7,0.1,0.9,0.2c0.3,0.1,0.5,0.3,0.6,0.5c0.1,0.2,0.2,0.5,0.2,0.7l-0.6,0
	c0-0.3-0.1-0.5-0.3-0.7c-0.2-0.2-0.5-0.2-0.8-0.2c-0.4,0-0.6,0.1-0.8,0.2c-0.2,0.1-0.3,0.3-0.3,0.5c0,0.2,0.1,0.3,0.2,0.4
	c0.1,0.1,0.4,0.2,0.9,0.3c0.5,0.1,0.9,0.2,1,0.3c0.3,0.1,0.5,0.3,0.6,0.5c0.1,0.2,0.2,0.4,0.2,0.7c0,0.2-0.1,0.5-0.2,0.7
	c-0.2,0.2-0.4,0.4-0.6,0.5c-0.3,0.1-0.6,0.2-0.9,0.2c-0.4,0-0.8-0.1-1.1-0.2c-0.3-0.1-0.5-0.3-0.7-0.6
	C85.9,44.5,85.8,44.2,85.8,43.9L85.8,43.9z M93,45.4v-4.1h-1.5v-0.6h3.7v0.6h-1.6v4.1H93z M100.4,40.7h0.6v2.7
	c0,0.5-0.1,0.8-0.2,1.1c-0.1,0.3-0.3,0.5-0.6,0.7c-0.3,0.2-0.6,0.3-1.1,0.3c-0.4,0-0.8-0.1-1.1-0.2c-0.3-0.1-0.5-0.4-0.6-0.7
	c-0.1-0.3-0.2-0.7-0.2-1.2v-2.7H98v2.7c0,0.4,0,0.7,0.1,0.9c0.1,0.2,0.2,0.3,0.4,0.4c0.2,0.1,0.4,0.2,0.7,0.2c0.5,0,0.8-0.1,1-0.3
	c0.2-0.2,0.3-0.6,0.3-1.2V40.7z M103.5,45.4v-4.7h1.6c0.4,0,0.6,0,0.8,0.1c0.3,0.1,0.5,0.2,0.7,0.3c0.2,0.2,0.4,0.5,0.6,0.8
	c0.1,0.3,0.2,0.7,0.2,1.1c0,0.4,0,0.7-0.1,0.9c-0.1,0.2-0.2,0.5-0.3,0.7c-0.1,0.2-0.3,0.3-0.4,0.4c-0.2,0.1-0.3,0.2-0.6,0.2
	c-0.2,0.1-0.5,0.1-0.8,0.1H103.5z M104.1,44.9h1c0.3,0,0.6,0,0.7-0.1c0.2-0.1,0.3-0.1,0.4-0.2c0.1-0.1,0.3-0.3,0.3-0.6
	c0.1-0.2,0.1-0.6,0.1-0.9c0-0.5-0.1-0.9-0.2-1.1c-0.2-0.3-0.4-0.4-0.6-0.5c-0.2-0.1-0.4-0.1-0.8-0.1h-1V44.9z M111,45.4v-2l-1.8-2.7
	h0.8l0.9,1.4c0.2,0.3,0.3,0.5,0.5,0.8c0.1-0.2,0.3-0.5,0.5-0.8l0.9-1.4h0.7l-1.9,2.7v2H111z"/>
</svg>
