<svg width="78" height="78" viewBox="0 0 78 78" fill="none" xmlns="http://www.w3.org/2000/svg">
<rect width="78" height="78" rx="21" fill="#0D9488"/>
<rect x="4" y="4" width="71" height="71" rx="18" fill="url(#paint0_linear_2313_719)"/>
<path d="M52.4387 54.9025L44.6663 62.6759C41.5421 65.7999 36.477 65.7997 33.3528 62.6759L26.1262 55.4493L39.0354 27.3487L52.4387 54.9025ZM39.885 44.6671C39.5092 43.9586 38.4933 43.9586 38.1174 44.6671L36.3733 47.9581C36.2796 48.1347 36.1349 48.2795 35.9582 48.3732L32.6672 50.1173C31.9587 50.4931 31.9587 51.5091 32.6672 51.8849L35.9582 53.629C36.1348 53.7227 36.2796 53.8675 36.3733 54.0441L38.1174 57.3351C38.4934 58.0431 39.5091 58.0432 39.885 57.3351L41.6291 54.0441C41.7228 53.8674 41.8675 53.7227 42.0442 53.629L45.3352 51.8849C46.0436 51.5091 46.0434 50.4933 45.3352 50.1173L42.0442 48.3732C41.8676 48.2795 41.7229 48.1347 41.6291 47.9581L39.885 44.6671ZM33.3528 15.3429C36.4769 12.2191 41.5422 12.219 44.6663 15.3429L62.675 33.3527C65.7992 36.4768 65.7992 41.5419 62.675 44.6661L57.3147 50.0255L44.4944 23.67L44.3176 23.338C43.3821 21.7191 41.6486 20.7083 39.76 20.7081H38.2893C36.361 20.7081 34.5984 21.7612 33.678 23.4327L33.5051 23.7755L21.2102 50.5333L15.343 44.6661C12.219 41.542 12.219 36.4768 15.343 33.3527L33.3528 15.3429Z" fill="white"/>
<defs>
<linearGradient id="paint0_linear_2313_719" x1="67" y1="7.5" x2="22" y2="49.5" gradientUnits="userSpaceOnUse">
<stop stop-color="#2DD4BF"/>
<stop offset="1" stop-color="#0D9488" stop-opacity="0"/>
</linearGradient>
</defs>
</svg>
