<svg width="78" height="78" viewBox="0 0 78 78" fill="none" xmlns="http://www.w3.org/2000/svg">
<rect width="78" height="78" rx="21" fill="#EA580C"/>
<rect x="4" y="3" width="71" height="71" rx="18" fill="url(#paint0_linear_2313_728)"/>
<path fill-rule="evenodd" clip-rule="evenodd" d="M21.7895 46.8019C22.3201 46.055 23.1784 45.6092 24.091 45.6092H46.4865C47.7293 45.6092 48.814 44.682 48.9296 43.4395C49.0616 42.0144 47.9439 40.8146 46.5549 40.8146H26.7298C25.9634 40.8146 25.5154 39.9419 25.9634 39.3159L28.7673 35.3678C29.2979 34.6209 30.1562 34.1751 31.0688 34.1751H42.388C43.6284 34.1751 44.7155 33.2479 44.8287 32.0054C44.9608 30.5803 43.8454 29.3805 42.4541 29.3805L21.0537 29.2666C20.0468 29.2619 19.0776 29.6603 18.3654 30.3788L15.2691 33.4922C12.2436 36.5345 12.2436 41.4643 15.2691 44.5066L19.2356 48.495C19.6483 48.91 20.3321 48.853 20.6693 48.3764L21.7871 46.8043L21.7895 46.8019Z" fill="white"/>
<path fill-rule="evenodd" clip-rule="evenodd" d="M62.4433 33.4928L44.3326 15.2817C41.3071 12.2394 36.4045 12.2394 33.379 15.2817L27.6628 21.0296C27.0709 21.6248 27.4859 22.642 28.323 22.6491L42.2787 22.7416C47.1766 22.7416 51.3057 26.6091 51.4378 31.5294C51.4731 32.8312 51.2326 34.0738 50.768 35.2025C50.7657 35.2096 50.761 35.2191 50.7586 35.2262C53.6544 36.7746 55.6141 39.8643 55.541 43.4022C55.4396 48.3439 51.3151 52.2493 46.4007 52.2493H25.248C24.4085 52.2493 23.9864 53.2713 24.5806 53.8688L33.3813 62.7183C36.4068 65.7606 41.3095 65.7606 44.335 62.7183L62.4457 44.5072C65.4712 41.4649 65.4712 36.5351 62.4457 33.4928H62.4433Z" fill="white"/>
<defs>
<linearGradient id="paint0_linear_2313_728" x1="68" y1="6" x2="16" y2="54.5" gradientUnits="userSpaceOnUse">
<stop stop-color="#FB923C"/>
<stop offset="1" stop-color="#EA580C" stop-opacity="0"/>
</linearGradient>
</defs>
</svg>
