<svg width="78" height="78" viewBox="0 0 78 78" fill="none" xmlns="http://www.w3.org/2000/svg">
<rect width="78" height="78" rx="21" fill="#E11D48"/>
<rect x="4" y="3" width="71" height="71" rx="18" fill="url(#paint0_linear_2313_735)"/>
<path fill-rule="evenodd" clip-rule="evenodd" d="M19.2915 46.5325H41.9031C43.04 46.5325 44.0365 45.6788 44.1127 44.5477C44.1959 43.3074 43.2065 42.2711 41.9792 42.2711H38.9515V42.2498H33.9663C29.2285 42.2498 25.2447 38.5314 25.1329 33.8098C25.0164 28.9461 28.9526 24.9526 33.8046 24.9526H49.7114C51.4073 24.9526 52.2564 22.9084 51.0576 21.7132L44.6074 15.2819C41.5559 12.2394 36.6111 12.2394 33.5596 15.2819L15.2886 33.4921C12.2371 36.5346 12.2371 41.4648 15.2886 44.5074L15.926 45.1429C16.818 46.0322 18.0286 46.5325 19.2891 46.5325H19.2915Z" fill="white"/>
<path fill-rule="evenodd" clip-rule="evenodd" d="M58.8673 31.4672H36.2557C35.1188 31.4672 34.1222 32.3209 34.0461 33.4521C33.9629 34.6924 34.9523 35.7287 36.1795 35.7287H39.2073V35.75H44.1924C48.9279 35.75 52.9141 39.4684 53.0259 44.1899C53.14 49.0537 49.2061 53.0472 44.3542 53.0472H28.4473C26.7515 53.0472 25.9024 55.0914 27.1011 56.2866L33.5514 62.7179C36.6029 65.7604 41.5476 65.7604 44.5991 62.7179L62.8654 44.5053C65.9169 41.4628 65.9169 36.5326 62.8654 33.49L62.228 32.8545C61.3361 31.9652 60.1254 31.4648 58.8649 31.4648L58.8673 31.4672Z" fill="white"/>
<defs>
<linearGradient id="paint0_linear_2313_735" x1="68.746" y1="7" x2="24" y2="53" gradientUnits="userSpaceOnUse">
<stop stop-color="#FB7185"/>
<stop offset="1" stop-color="#E11D48" stop-opacity="0"/>
</linearGradient>
</defs>
</svg>
