<svg width="78" height="78" viewBox="0 0 78 78" fill="none" xmlns="http://www.w3.org/2000/svg">
<rect width="78" height="78" rx="21" fill="#65A30D"/>
<rect x="4" y="3" width="71" height="71" rx="18" fill="url(#paint0_linear_2313_710)"/>
<path fill-rule="evenodd" d="M33.3528 15.3429C36.4769 12.2191 41.5422 12.219 44.6663 15.3429L62.675 33.3527C65.7992 36.4768 65.7992 41.5419 62.675 44.6661L44.6663 62.6759C41.5421 65.7999 36.477 65.7997 33.3528 62.6759L15.343 44.6661C12.219 41.542 12.219 36.4768 15.343 33.3527L33.3528 15.3429ZM46.5877 23.6515C39.898 22.4173 38.0957 22.4172 37.3097 23.6515L32.2345 31.6251C32.0774 31.872 31.8681 32.0813 31.6212 32.2384L23.6476 37.3136C22.4133 38.0995 22.4134 39.9016 23.6476 40.6876L31.6212 45.7618C31.868 45.9189 32.0774 46.1293 32.2345 46.3761L37.3097 54.3497C38.0957 55.584 39.8978 55.5841 40.6837 54.3497L45.758 46.3761C45.9151 46.1292 46.1254 45.919 46.3722 45.7618L54.3458 40.6876C55.5802 39.9017 55.5802 38.0996 54.3458 37.3136L46.3722 32.2384C46.1254 32.0813 45.915 31.8719 45.758 31.6251L40.6837 23.6515Z" fill="white"/>
<defs>
<linearGradient id="paint0_linear_2313_710" x1="67" y1="6.5" x2="21" y2="55.5" gradientUnits="userSpaceOnUse">
<stop stop-color="#A3E635"/>
<stop offset="1" stop-color="#65A30D" stop-opacity="0"/>
</linearGradient>
</defs>
</svg>
