<svg class="logo--image-inner" xmlns="http://www.w3.org/2000/svg" width="253" height="66" viewBox="0 0 253 66" fill="none">
                                                <path d="M61.9995 25.1957L65.502 18.3614C65.502 18.3614 60.5894 15.5822 54.858 15.5822C49.1266 15.5822 42.9404 18.6348 42.9404 26.1981C42.9404 39.5932 57.5418 33.6702 57.5418 40.7778C57.5418 45.9719 47.8985 43.6482 45.3967 40.5044L41.5303 47.7943C41.5303 47.7943 47.1252 51.4393 53.5389 51.4393C59.9526 51.4393 66.8212 48.1133 66.8212 41.0056C66.8212 27.0637 52.1288 31.2554 52.1288 25.8336C52.0833 22.1431 58.497 21.9608 61.9995 25.1957Z" fill="#003B60"/>
                                                <path d="M73.8713 4.46506V58.3191H48.3529C45.0779 58.3191 41.9392 59.0936 39.119 60.5972C36.2988 59.0936 33.1602 58.3191 29.8851 58.3191H4.36677V4.46506H29.8851C32.2504 4.46506 34.5248 5.2396 36.3898 6.65202L39.119 8.74786L41.8483 6.65202C43.7132 5.2396 45.9421 4.46506 48.3529 4.46506H73.8713ZM78.329 0H48.3529C44.8959 0 41.6663 1.13905 39.1645 3.0982C36.6172 1.13905 33.4331 0 29.9306 0H0V62.7841H29.9761C33.4331 62.7841 36.6627 63.9232 39.21 65.8823C41.7573 63.9232 44.9414 62.7841 48.3984 62.7841H78.3745V0H78.329Z" fill="#0080C0"/>
                                                <path d="M24.2441 51.6215H27.3828C33.8419 51.6215 39.073 46.3819 39.073 39.9121V15.3999H30.6578V38.0441C30.7033 46.0174 28.4745 49.9813 24.2441 51.6215Z" fill="#0080C0"/>
                                                <path d="M18.422 15.3999H11.7354V30.5264C13.7368 24.6034 15.9657 19.5005 18.422 15.3999Z" fill="#0080C0"/>
                                                <path d="M20.1505 16.6757V38.0441C20.1505 40.9601 22.5158 43.3293 25.427 43.3293C26.5642 43.3293 27.6104 42.9648 28.4292 42.3725C28.4292 45.653 26.9281 49.0701 23.6075 50.4825C21.6061 51.3482 19.3317 51.1204 17.4667 49.9813C14.0552 47.9311 11.7354 44.195 11.7354 39.9122V37.7252C12.3267 32.3034 15.7837 24.2845 20.1505 16.6757Z" fill="#003B60"/>
                                                <path d="M101.027 22.8264H96.706C96.524 23.2821 96.3875 23.6465 96.2511 24.011C96.1146 24.3755 96.0237 24.6489 95.9327 24.8767C95.8417 25.1045 95.7962 25.3323 95.7507 25.5146C95.7052 25.6968 95.7052 25.8335 95.7052 25.9246C95.7052 26.2436 95.7962 26.4258 95.9782 26.5625C96.1601 26.6536 96.4785 26.7447 96.9334 26.7447V27.3371H93.0215V26.7447C93.2489 26.6992 93.4764 26.6536 93.6583 26.6081C93.8403 26.5625 93.9767 26.4714 94.1132 26.3803C94.2496 26.2891 94.3861 26.1524 94.4771 26.0158C94.5681 25.8791 94.659 25.6513 94.7955 25.4235L98.9803 14.8987H99.6626L103.347 24.011C103.575 24.6033 103.802 25.1045 103.984 25.469C104.166 25.8335 104.348 26.1069 104.53 26.2891C104.712 26.4714 104.894 26.6081 105.076 26.6536C105.258 26.6992 105.53 26.7447 105.803 26.7447V27.3826H100.527V26.7447C101.118 26.7447 101.482 26.6992 101.71 26.5625C101.937 26.4714 102.028 26.2891 102.028 26.0158C102.028 25.9246 102.028 25.7879 102.028 25.6968C102.028 25.6057 101.982 25.5146 101.982 25.3779C101.937 25.2868 101.937 25.1501 101.891 25.0134C101.846 24.8767 101.801 24.74 101.71 24.5578L101.027 22.8264ZM97.0244 22.0063H100.709L98.9348 17.2223L97.0244 22.0063Z" fill="#003B60"/>
                                                <path d="M118.312 17.9514H117.63C117.584 17.4957 117.539 17.0857 117.402 16.7667C117.266 16.4478 117.129 16.22 116.902 16.0378C116.674 15.8555 116.402 15.7188 116.083 15.6733C115.765 15.5821 115.355 15.5821 114.9 15.5821C114.491 15.5821 114.173 15.5821 113.945 15.6277C113.718 15.6277 113.536 15.6733 113.399 15.7188C113.263 15.7644 113.172 15.8099 113.126 15.8555C113.081 15.9011 113.081 15.9922 113.081 16.0833V24.7401C113.081 25.1046 113.126 25.3779 113.172 25.6513C113.217 25.9247 113.308 26.1069 113.445 26.2436C113.581 26.3803 113.809 26.517 114.082 26.6081C114.355 26.6992 114.718 26.7448 115.173 26.7448V27.3371H109.033V26.7448C109.487 26.7448 109.851 26.6992 110.124 26.6081C110.397 26.517 110.625 26.4258 110.761 26.2436C110.898 26.1069 110.989 25.8791 111.034 25.6513C111.08 25.4235 111.125 25.1046 111.125 24.7401V16.0833C111.125 15.9922 111.125 15.9011 111.08 15.8555C111.034 15.8099 110.989 15.7644 110.852 15.7188C110.761 15.6733 110.579 15.6277 110.397 15.6277C110.17 15.6277 109.897 15.5821 109.578 15.5821C109.169 15.5821 108.76 15.5821 108.396 15.6277C108.032 15.6733 107.713 15.7644 107.441 15.9011C107.168 16.0378 106.986 16.3111 106.804 16.6301C106.622 16.949 106.576 17.4046 106.531 17.9514H105.939V14.8531H118.13L118.312 17.9514Z" fill="#003B60"/>
                                                <path d="M120.405 16.9034C120.223 16.63 120.086 16.4022 119.95 16.22C119.813 16.0377 119.677 15.901 119.54 15.8099C119.404 15.7188 119.222 15.6277 119.085 15.5821C118.904 15.5365 118.722 15.5365 118.494 15.5365V14.8987H123.589V15.5365C123.043 15.5365 122.679 15.5821 122.452 15.6732C122.224 15.7644 122.133 15.901 122.133 16.0833C122.133 16.3111 122.27 16.63 122.497 17.0401L124.999 21.3229H125.044L126.864 18.2703C127.228 17.678 127.455 17.2223 127.592 16.9034C127.728 16.5845 127.819 16.3111 127.819 16.0833C127.819 15.8555 127.728 15.7188 127.592 15.6732C127.455 15.5821 127.182 15.5365 126.773 15.5365V14.8987H130.457V15.5365C130.23 15.5365 130.048 15.5821 129.866 15.6277C129.684 15.6732 129.502 15.8099 129.32 16.0377C129.138 16.22 128.911 16.4933 128.683 16.8578C128.456 17.2223 128.183 17.678 127.819 18.2247L125.317 22.4164V24.33C125.317 24.8767 125.317 25.2868 125.363 25.6057C125.408 25.9246 125.499 26.1524 125.59 26.3347C125.727 26.5169 125.909 26.6081 126.136 26.6992C126.363 26.7448 126.682 26.7903 127.046 26.7903V27.3826H121.815V26.7903C122.224 26.7903 122.497 26.7448 122.724 26.6992C122.952 26.6536 123.134 26.5169 123.27 26.3803C123.407 26.2436 123.498 25.9702 123.543 25.6968C123.589 25.3779 123.589 25.0134 123.589 24.5122V22.5531L120.405 16.9034Z" fill="#003B60"/>
                                                <path d="M141.056 17.9968C141.056 18.8625 140.783 19.5915 140.282 20.1382C139.782 20.7305 138.963 21.095 137.826 21.2773L141.42 25.6056C141.693 25.9701 142.011 26.1979 142.375 26.3802C142.739 26.5169 143.148 26.6536 143.648 26.7447V27.337H140.51L136.552 22.2341C136.416 22.0518 136.28 21.9151 136.143 21.7784C136.007 21.6873 135.87 21.5962 135.734 21.5051C135.597 21.4595 135.461 21.414 135.279 21.414C135.097 21.414 134.869 21.3684 134.642 21.3684V24.74C134.642 25.15 134.688 25.4689 134.733 25.6968C134.778 25.9246 134.869 26.1524 135.051 26.2891C135.188 26.4257 135.415 26.5169 135.734 26.5624C136.052 26.608 136.416 26.6536 136.916 26.6536V27.2459H131.23V26.6536C131.594 26.6536 131.913 26.608 132.14 26.5624C132.368 26.5169 132.55 26.4257 132.686 26.2891C132.823 26.1524 132.914 25.9701 132.959 25.7423C133.004 25.5145 133.004 25.1956 133.004 24.8311V17.2678C133.004 16.9033 133.004 16.5844 132.959 16.3566C132.914 16.1288 132.868 15.9465 132.732 15.8099C132.595 15.6732 132.459 15.582 132.231 15.5365C132.004 15.4909 131.731 15.4454 131.412 15.4454V14.8075H136.507C138.008 14.8075 139.145 15.0809 139.964 15.6276C140.646 16.2655 141.056 17.04 141.056 17.9968ZM134.597 20.6394H135.734C136.825 20.6394 137.599 20.4572 138.145 20.0471C138.645 19.637 138.918 18.9992 138.918 18.0879C138.918 17.2223 138.69 16.5844 138.281 16.2199C137.872 15.8554 137.235 15.6732 136.325 15.6732H134.824C134.642 15.6732 134.551 15.7643 134.551 15.9465V20.6394H134.597Z" fill="#003B60"/>
                                                <path d="M151.017 22.8264H146.696C146.514 23.2821 146.378 23.6465 146.241 24.011C146.105 24.3755 146.014 24.6489 145.923 24.8767C145.832 25.1045 145.786 25.3323 145.741 25.5146C145.695 25.6968 145.695 25.8335 145.695 25.9246C145.695 26.2436 145.786 26.4258 145.968 26.5625C146.15 26.6536 146.469 26.7447 146.924 26.7447V27.3371H143.012V26.7447C143.239 26.6992 143.467 26.6536 143.649 26.6081C143.83 26.5625 143.967 26.4714 144.103 26.3803C144.24 26.2891 144.376 26.1524 144.467 26.0158C144.558 25.8791 144.649 25.6513 144.786 25.4235L148.971 14.8987H149.653L153.337 24.011C153.565 24.6033 153.792 25.1045 153.974 25.469C154.156 25.8335 154.338 26.1069 154.52 26.2891C154.702 26.4714 154.884 26.6081 155.066 26.6536C155.248 26.6992 155.521 26.7447 155.794 26.7447V27.3826H150.517V26.7447C151.108 26.7447 151.472 26.6992 151.7 26.5625C151.927 26.4714 152.018 26.2891 152.018 26.0158C152.018 25.9246 152.018 25.7879 152.018 25.6968C152.018 25.6057 151.973 25.5146 151.973 25.3779C151.927 25.2868 151.927 25.1501 151.882 25.0134C151.836 24.8767 151.791 24.74 151.7 24.5578L151.017 22.8264ZM147.06 22.0063H150.745L148.971 17.2223L147.06 22.0063Z" fill="#003B60"/>
                                                <path d="M167.302 22.3252C167.302 23.1909 167.211 23.9198 167.075 24.5577C166.893 25.1956 166.62 25.7423 166.256 26.1979C165.892 26.608 165.392 26.9725 164.8 27.1547C164.209 27.3825 163.481 27.4737 162.662 27.4737C161.844 27.4737 161.161 27.3825 160.57 27.2459C159.979 27.1092 159.478 26.8358 159.069 26.4713C158.66 26.1068 158.387 25.6512 158.159 25.0589C157.977 24.4666 157.886 23.7376 157.886 22.9175V18.6347C157.886 17.8146 157.886 17.2223 157.841 16.8122C157.795 16.4022 157.704 16.0832 157.522 15.8554C157.386 15.7187 157.204 15.6276 156.977 15.582C156.749 15.5365 156.476 15.4909 156.112 15.4909V14.8531H161.616V15.4909C161.252 15.4909 160.934 15.4909 160.707 15.5365C160.479 15.582 160.297 15.6732 160.161 15.8554C160.024 16.0377 159.933 16.3566 159.888 16.7667C159.842 17.1767 159.842 17.8146 159.842 18.5891V23.0086C159.842 23.5554 159.888 24.0565 160.024 24.4666C160.161 24.8766 160.343 25.2411 160.57 25.5601C160.843 25.879 161.161 26.0613 161.571 26.2435C161.98 26.3802 162.481 26.4713 163.117 26.4713C164.209 26.4713 164.982 26.1524 165.528 25.5601C166.074 24.9678 166.347 24.1021 166.347 22.9175V18.9992C166.347 18.0424 166.301 17.3134 166.256 16.8122C166.165 16.311 166.029 15.9465 165.847 15.7643C165.71 15.6276 165.528 15.5365 165.301 15.4909C165.073 15.4454 164.8 15.4454 164.482 15.4454V14.8075H169.076V15.4454C168.712 15.4454 168.439 15.4909 168.212 15.5365C167.985 15.582 167.803 15.7187 167.666 15.901C167.484 16.1288 167.393 16.4933 167.348 16.9489C167.302 17.4045 167.257 18.1335 167.257 18.9992V22.3252H167.302Z" fill="#003B60"/>
                                                <path d="M181.813 14.7164C182.768 14.7164 183.632 14.8987 184.451 15.2176C185.27 15.5365 185.998 15.9922 186.589 16.5845C187.18 17.1768 187.681 17.8602 187.999 18.6347C188.363 19.4093 188.499 20.275 188.499 21.1862C188.499 22.0519 188.317 22.872 187.954 23.6465C187.59 24.4211 187.135 25.059 186.543 25.6513C185.952 26.198 185.224 26.6536 184.406 26.9725C183.587 27.2915 182.722 27.4737 181.767 27.4737C180.812 27.4737 179.948 27.2915 179.129 26.9725C178.31 26.6536 177.582 26.198 176.991 25.6513C176.4 25.1045 175.899 24.4211 175.581 23.6465C175.217 22.872 175.035 22.0519 175.035 21.1862C175.035 20.275 175.217 19.4093 175.536 18.6347C175.899 17.8602 176.354 17.1768 176.946 16.5845C177.537 15.9922 178.265 15.5365 179.084 15.2176C179.993 14.8987 180.858 14.7164 181.813 14.7164ZM181.813 26.6081C182.541 26.6081 183.177 26.4714 183.723 26.2436C184.269 26.0158 184.769 25.6513 185.179 25.1956C185.588 24.74 185.907 24.1477 186.089 23.5099C186.316 22.8264 186.407 22.0974 186.407 21.2773C186.407 20.4117 186.316 19.6371 186.089 18.9537C185.861 18.2702 185.588 17.6779 185.179 17.1768C184.769 16.6756 184.315 16.3111 183.723 16.0377C183.132 15.7643 182.495 15.6277 181.813 15.6277C181.085 15.6277 180.448 15.7643 179.902 16.0377C179.311 16.3111 178.856 16.6756 178.447 17.1768C178.037 17.6779 177.719 18.2702 177.537 18.9537C177.31 19.6371 177.219 20.4117 177.219 21.2773C177.219 22.0974 177.31 22.8264 177.537 23.5099C177.764 24.1933 178.037 24.74 178.447 25.1956C178.856 25.6513 179.311 26.0158 179.902 26.2436C180.448 26.4714 181.085 26.6081 181.813 26.6081Z" fill="#003B60"/>
                                                <path d="M193.639 24.2844C193.639 24.8312 193.639 25.2412 193.685 25.5601C193.73 25.8791 193.821 26.1069 193.912 26.2891C194.049 26.4714 194.231 26.5625 194.458 26.6081C194.685 26.6536 195.004 26.6992 195.368 26.6992V27.2915H190.137V26.6992C190.501 26.6992 190.819 26.6536 191.046 26.6081C191.274 26.5625 191.456 26.4258 191.592 26.2891C191.729 26.1069 191.82 25.8791 191.865 25.6057C191.911 25.2868 191.911 24.9223 191.911 24.4211V17.8602C191.911 17.4046 191.911 17.0401 191.865 16.7212C191.82 16.4022 191.774 16.1744 191.638 16.0377C191.547 15.8555 191.365 15.7644 191.137 15.6732C190.91 15.5821 190.637 15.5365 190.319 15.5365V14.8987H195.231V15.5365C194.867 15.5365 194.594 15.5821 194.413 15.6732C194.231 15.7644 194.049 15.8555 193.912 16.0377C193.821 16.22 193.73 16.4478 193.685 16.7667C193.639 17.0857 193.639 17.4957 193.639 17.9513V24.2844V24.2844Z" fill="#003B60"/>
                                                <path d="M207.331 27.337H196.914V26.7447C197.278 26.7447 197.596 26.6992 197.824 26.6536C198.051 26.6081 198.233 26.5169 198.37 26.3802C198.506 26.2436 198.597 26.0613 198.643 25.8335C198.688 25.6057 198.688 25.2868 198.688 24.9223V17.359C198.688 16.9945 198.688 16.6756 198.643 16.4478C198.597 16.22 198.552 16.0377 198.415 15.901C198.279 15.7644 198.142 15.6732 197.915 15.6277C197.687 15.5821 197.414 15.5365 197.096 15.5365V14.8987H202.009V15.5365C201.645 15.5365 201.372 15.5821 201.19 15.6277C200.962 15.6732 200.826 15.7644 200.69 15.901C200.599 16.0377 200.508 16.22 200.462 16.4933C200.417 16.7212 200.417 17.0856 200.417 17.4957V24.4667C200.417 24.9223 200.462 25.2868 200.553 25.5601C200.644 25.8335 200.78 26.0613 201.008 26.2436C201.235 26.3803 201.508 26.5169 201.872 26.5625C202.236 26.6081 202.691 26.6536 203.282 26.6536C203.919 26.6536 204.419 26.6081 204.829 26.5625C205.238 26.4714 205.602 26.3802 205.875 26.198C206.148 26.0158 206.375 25.7879 206.557 25.469C206.739 25.1501 206.876 24.74 206.967 24.2388H207.558L207.331 27.337Z" fill="#003B60"/>
                                                <path d="M220.432 22.8264H216.11C215.928 23.2821 215.792 23.6465 215.655 24.011C215.519 24.3755 215.428 24.6489 215.337 24.8767C215.246 25.1045 215.201 25.3323 215.155 25.5146C215.11 25.6968 215.11 25.8335 215.11 25.9246C215.11 26.2436 215.201 26.4258 215.382 26.5625C215.564 26.6536 215.883 26.7447 216.338 26.7447V27.3371H212.426V26.7447C212.653 26.6992 212.881 26.6536 213.063 26.6081C213.245 26.5625 213.381 26.4714 213.517 26.3803C213.654 26.2891 213.79 26.1524 213.881 26.0158C213.972 25.8791 214.063 25.6513 214.2 25.4235L218.385 14.8987H219.067L222.751 24.011C222.979 24.6033 223.206 25.1045 223.388 25.469C223.57 25.8335 223.752 26.1069 223.934 26.2891C224.116 26.4714 224.298 26.6081 224.48 26.6536C224.662 26.6992 224.935 26.7447 225.208 26.7447V27.3826H219.931V26.7447C220.523 26.7447 220.886 26.6992 221.114 26.5625C221.341 26.4714 221.432 26.2891 221.432 26.0158C221.432 25.9246 221.432 25.7879 221.432 25.6968C221.432 25.6057 221.387 25.5146 221.387 25.3779C221.341 25.2868 221.341 25.1501 221.296 25.0134C221.25 24.8767 221.205 24.74 221.114 24.5578L220.432 22.8264ZM216.429 22.0063H220.113L218.339 17.2223L216.429 22.0063Z" fill="#003B60"/>
                                                <path d="M236.26 27.5193L228.573 17.4045H228.528V24.3299C228.528 24.8767 228.528 25.2867 228.573 25.6057C228.619 25.9246 228.664 26.1524 228.801 26.3347C228.892 26.5169 229.074 26.608 229.301 26.6536C229.528 26.6992 229.801 26.7447 230.12 26.7447V27.337H225.753V26.7447C226.117 26.7447 226.435 26.6992 226.663 26.6536C226.89 26.608 227.072 26.4713 227.209 26.3347C227.345 26.1524 227.436 25.9246 227.481 25.6512C227.527 25.3323 227.527 24.9678 227.527 24.4666V17.9057C227.527 17.4501 227.527 17.0856 227.481 16.7667C227.436 16.4478 227.39 16.2199 227.254 16.0833C227.163 15.901 226.981 15.8099 226.754 15.7188C226.526 15.6276 226.253 15.5821 225.935 15.5821V14.9442H229.119L236.17 24.3755H236.215V17.9969C236.215 17.4501 236.215 17.0401 236.17 16.7211C236.124 16.4022 236.079 16.1744 235.942 15.9921C235.851 15.8099 235.669 15.7188 235.442 15.6732C235.214 15.6276 234.941 15.5821 234.623 15.5821V14.9442H238.99V15.5821C238.626 15.5821 238.307 15.6276 238.08 15.6732C237.853 15.7188 237.671 15.8554 237.534 15.9921C237.398 16.1288 237.307 16.4022 237.261 16.6756C237.216 16.9945 237.216 17.359 237.216 17.8602V27.5193H236.26Z" fill="#003B60"/>
                                                <path d="M240.218 27.337V26.7447C240.627 26.7447 240.946 26.6992 241.218 26.6536C241.491 26.6081 241.673 26.5169 241.81 26.3802C241.946 26.2436 242.037 26.0613 242.083 25.8335C242.128 25.6057 242.174 25.2868 242.174 24.9223V17.359C242.174 16.9945 242.174 16.6756 242.128 16.4478C242.083 16.22 242.037 16.0377 241.901 15.901C241.764 15.7644 241.628 15.6732 241.4 15.6277C241.173 15.5821 240.9 15.5365 240.582 15.5365V14.8987H246.268C247.223 14.8987 248.133 15.0809 248.951 15.3999C249.77 15.7188 250.498 16.1744 251.089 16.7212C251.681 17.3135 252.135 17.9513 252.499 18.7714C252.818 19.546 253 20.4117 253 21.3229C253 22.1886 252.863 23.0087 252.545 23.7377C252.226 24.4667 251.772 25.1045 251.226 25.6513C250.68 26.198 249.998 26.6081 249.179 26.8814C248.36 27.1548 247.541 27.337 246.586 27.337H240.218ZM244.13 15.6732C243.948 15.6732 243.857 15.7644 243.857 15.9466V24.6945C243.857 25.9246 244.676 26.5625 246.268 26.5625C247.723 26.5625 248.86 26.1069 249.679 25.2412C250.452 24.3755 250.862 23.0542 250.862 21.3685C250.862 20.4572 250.771 19.6827 250.543 18.9537C250.316 18.2703 249.998 17.6779 249.634 17.1768C249.27 16.6756 248.724 16.3111 248.178 16.0377C247.587 15.7644 246.95 15.6277 246.222 15.6277H244.13V15.6732Z" fill="#003B60"/>
                                                <path d="M100.027 46.9286C99.1169 46.9286 98.2981 46.7919 97.5703 46.473C96.8425 46.1996 96.2057 45.7896 95.7053 45.2428C95.205 44.6961 94.7956 44.0582 94.5227 43.2837C94.2497 42.5091 94.1133 41.6434 94.1133 40.7322C94.1133 39.7298 94.2497 38.8642 94.5682 38.044C94.8866 37.2239 95.2959 36.5405 95.8418 35.9482C96.3876 35.3559 97.0245 34.9003 97.7977 34.5814C98.571 34.2624 99.3898 34.1257 100.3 34.1257C100.936 34.1257 101.573 34.2169 102.119 34.3991C102.71 34.5814 103.302 34.9003 103.984 35.3103L104.302 34.308H104.848L104.621 38.044H103.848C103.848 37.4973 103.757 37.0417 103.529 36.6772C103.347 36.3127 103.074 35.9938 102.756 35.7204C102.437 35.4926 102.074 35.3103 101.664 35.1737C101.255 35.037 100.845 34.9914 100.391 34.9914C99.7537 34.9914 99.1624 35.1281 98.6165 35.4015C98.1162 35.6748 97.6613 36.0393 97.2974 36.5405C96.9335 37.0417 96.6606 37.634 96.4786 38.3174C96.2967 39.0008 96.2057 39.821 96.2057 40.6866C96.2057 42.418 96.5696 43.7393 97.2974 44.6961C98.0252 45.6529 99.0714 46.1085 100.436 46.1085C100.936 46.1085 101.437 46.0629 101.846 45.9262C102.255 45.7896 102.619 45.6529 102.892 45.4251C103.165 45.1972 103.393 44.9694 103.529 44.6961C103.666 44.4227 103.757 44.1493 103.757 43.8304C103.757 43.1925 103.62 42.7825 103.393 42.5547C103.12 42.3269 102.71 42.2357 102.165 42.2357V41.5979H106.759V42.2357C106.486 42.2357 106.304 42.2357 106.122 42.2813C105.94 42.3269 105.803 42.418 105.713 42.5091C105.622 42.6002 105.531 42.7825 105.485 42.9647C105.44 43.147 105.44 43.3748 105.44 43.6481V45.4706C105.212 45.4706 105.03 45.4706 104.894 45.5162C104.712 45.5162 104.53 45.5617 104.348 45.6073C104.166 45.6529 103.984 45.744 103.757 45.8351C103.529 45.9262 103.256 46.0629 102.983 46.2452C102.619 46.473 102.165 46.6552 101.664 46.7464C101.164 46.8375 100.618 46.9286 100.027 46.9286Z" fill="#003B60"/>
                                                <path d="M115.083 42.2357H110.762C110.58 42.6914 110.443 43.0559 110.307 43.4203C110.17 43.7848 110.079 44.0582 109.988 44.286C109.897 44.5138 109.852 44.7416 109.806 44.9239C109.761 45.1061 109.761 45.2428 109.761 45.3339C109.761 45.6529 109.852 45.8351 110.034 45.9718C110.216 46.0629 110.534 46.1541 110.989 46.1541V46.7464H107.077V46.1541C107.305 46.1085 107.532 46.0629 107.714 46.0174C107.896 45.9718 108.032 45.8807 108.169 45.7896C108.305 45.6984 108.442 45.5618 108.533 45.4251C108.624 45.2884 108.715 45.0606 108.851 44.8328L113.036 34.308H113.718L117.403 43.4203C117.63 44.0127 117.858 44.5138 118.04 44.8783C118.222 45.2428 118.403 45.5162 118.585 45.6984C118.767 45.8807 118.949 46.0174 119.131 46.0629C119.313 46.1085 119.586 46.1541 119.859 46.1541V46.7919H114.583V46.1541C115.174 46.1541 115.538 46.1085 115.765 45.9718C115.993 45.8807 116.084 45.6984 116.084 45.4251C116.084 45.3339 116.084 45.1973 116.084 45.1061C116.084 45.015 116.038 44.9239 116.038 44.7872C115.993 44.6961 115.993 44.5594 115.947 44.4227C115.902 44.286 115.856 44.1493 115.765 43.9671L115.083 42.2357ZM111.08 41.4156H114.764L112.99 36.6316L111.08 41.4156Z" fill="#003B60"/>
                                                <path d="M120.587 42.9648H121.178C121.269 43.4659 121.406 43.876 121.588 44.286C121.77 44.6961 122.043 45.015 122.361 45.2884C122.679 45.5618 123.043 45.744 123.453 45.9263C123.862 46.063 124.317 46.1541 124.817 46.1541C125.636 46.1541 126.227 45.9718 126.728 45.6073C127.183 45.2428 127.41 44.6961 127.41 44.0582C127.41 43.7849 127.365 43.5571 127.274 43.3293C127.183 43.1014 127.046 42.8736 126.819 42.6914C126.591 42.5091 126.318 42.2813 125.954 42.0535C125.591 41.8713 125.136 41.6435 124.59 41.3701C123.907 41.0967 123.362 40.7778 122.907 40.55C122.452 40.2766 122.088 40.0032 121.815 39.7299C121.542 39.4565 121.36 39.1376 121.224 38.8186C121.087 38.4997 121.042 38.1352 121.042 37.6796C121.042 37.1784 121.133 36.7228 121.315 36.3127C121.497 35.9027 121.724 35.5382 122.088 35.2193C122.406 34.9003 122.816 34.6725 123.225 34.4903C123.68 34.308 124.135 34.2625 124.681 34.2625C125.136 34.2625 125.591 34.3536 126 34.4903C126.409 34.6269 126.819 34.9003 127.228 35.2193L127.637 34.4903H128.001L128.183 37.7251H127.683C127.41 36.8595 127.046 36.176 126.546 35.766C126.045 35.3559 125.454 35.1281 124.772 35.1281C124.135 35.1281 123.589 35.3104 123.225 35.6293C122.816 35.9482 122.634 36.4039 122.634 36.9506C122.634 37.224 122.679 37.4518 122.77 37.634C122.861 37.8163 122.998 38.0441 123.18 38.2263C123.362 38.4086 123.635 38.5908 123.953 38.7731C124.271 38.9553 124.635 39.1376 125.136 39.3654C125.954 39.7299 126.591 40.0488 127.137 40.3677C127.683 40.6867 128.092 41.0056 128.411 41.279C128.729 41.5979 128.957 41.9168 129.093 42.2358C129.23 42.5547 129.275 42.9648 129.275 43.3748C129.275 43.9216 129.184 44.4227 128.957 44.8783C128.729 45.334 128.456 45.6985 128.047 46.063C127.637 46.4275 127.183 46.6553 126.637 46.8375C126.091 47.0198 125.5 47.1109 124.863 47.1109C124.271 47.1109 123.68 47.0198 123.225 46.8375C122.725 46.6553 122.224 46.3819 121.724 45.9718L121.269 46.7464H120.905L120.587 42.9648Z" fill="#003B60"/>
                                                <path d="M146.378 41.7346C146.378 42.6003 146.287 43.3293 146.151 43.9671C145.969 44.605 145.696 45.1517 145.332 45.6074C144.968 46.0174 144.468 46.3819 143.877 46.5642C143.285 46.792 142.557 46.8831 141.739 46.8831C140.92 46.8831 140.238 46.792 139.646 46.6553C139.055 46.5186 138.555 46.2452 138.145 45.8807C137.736 45.5162 137.463 45.0606 137.235 44.4683C137.053 43.876 136.962 43.147 136.962 42.3269V38.0441C136.962 37.224 136.962 36.6317 136.917 36.2216C136.871 35.8116 136.781 35.4926 136.599 35.2648C136.462 35.1281 136.28 35.037 136.053 34.9915C135.825 34.9459 135.552 34.9003 135.188 34.9003V34.2625H140.692V34.9003C140.329 34.9003 140.01 34.9003 139.783 34.9459C139.555 34.9915 139.373 35.0826 139.237 35.2648C139.1 35.4471 139.009 35.766 138.964 36.1761C138.918 36.5861 138.918 37.224 138.918 37.9985V42.418C138.918 42.9648 138.964 43.466 139.1 43.876C139.237 44.2861 139.419 44.6506 139.646 44.9695C139.919 45.2884 140.238 45.4707 140.647 45.6529C141.056 45.7896 141.557 45.8807 142.194 45.8807C143.285 45.8807 144.058 45.5618 144.604 44.9695C145.15 44.3772 145.423 43.5115 145.423 42.3269V38.4086C145.423 37.4518 145.378 36.7228 145.332 36.2216C145.241 35.7205 145.105 35.356 144.923 35.1737C144.786 35.037 144.604 34.9459 144.377 34.9003C144.149 34.8548 143.877 34.8548 143.558 34.8548V34.2169H148.152V34.8548C147.788 34.8548 147.516 34.9003 147.288 34.9459C147.061 34.9915 146.879 35.1282 146.742 35.3104C146.56 35.5382 146.469 35.9027 146.424 36.3583C146.378 36.8139 146.333 37.5429 146.333 38.4086V41.7346H146.378Z" fill="#003B60"/>
                                                <path d="M159.843 46.9286L152.155 36.8139H152.11V43.7392C152.11 44.286 152.11 44.696 152.155 45.015C152.201 45.3339 152.246 45.5617 152.383 45.744C152.474 45.9262 152.656 46.0173 152.883 46.0629C153.11 46.1085 153.383 46.154 153.702 46.154V46.7463H149.335V46.154C149.699 46.154 150.017 46.1085 150.245 46.0629C150.472 46.0173 150.654 45.8806 150.791 45.744C150.927 45.5617 151.018 45.3339 151.063 45.0605C151.109 44.7416 151.109 44.3771 151.109 43.8759V37.315C151.109 36.8594 151.109 36.4949 151.063 36.176C151.018 35.8571 150.972 35.6292 150.836 35.4926C150.745 35.3103 150.563 35.2192 150.336 35.1281C150.108 35.0369 149.835 34.9914 149.517 34.9914V34.3535H152.701L159.752 43.7848H159.797V37.4062C159.797 36.8594 159.797 36.4494 159.752 36.1304C159.706 35.8115 159.661 35.5837 159.524 35.4014C159.433 35.2192 159.251 35.1281 159.024 35.0825C158.796 35.0369 158.523 34.9914 158.205 34.9914V34.3535H162.572V34.9914C162.208 34.9914 161.889 35.0369 161.662 35.0825C161.435 35.1281 161.253 35.2648 161.116 35.4014C160.98 35.5381 160.889 35.8115 160.843 36.0849C160.798 36.4038 160.798 36.7683 160.798 37.2695V46.9286H159.843V46.9286Z" fill="#003B60"/>
                                                <path d="M167.393 43.6937C167.393 44.2405 167.393 44.6505 167.439 44.9694C167.484 45.2884 167.575 45.5162 167.666 45.6984C167.803 45.8807 167.984 45.9718 168.212 46.0174C168.439 46.0629 168.758 46.1085 169.122 46.1085V46.7008H163.891V46.1085C164.255 46.1085 164.573 46.0629 164.8 46.0174C165.028 45.9718 165.21 45.8351 165.346 45.6984C165.483 45.5162 165.574 45.2884 165.619 45.015C165.665 44.6961 165.665 44.3316 165.665 43.8304V37.2695C165.665 36.8139 165.665 36.4494 165.619 36.1305C165.574 35.8115 165.528 35.5837 165.392 35.447C165.301 35.2648 165.119 35.1737 164.891 35.0825C164.664 34.9914 164.391 34.9458 164.073 34.9458V34.308H168.985V34.9458C168.621 34.9458 168.348 34.9914 168.166 35.0825C167.984 35.1737 167.803 35.2648 167.666 35.447C167.575 35.6293 167.484 35.8571 167.439 36.176C167.393 36.4949 167.393 36.905 167.393 37.3606V43.6937V43.6937Z" fill="#003B60"/>
                                                <path d="M176.764 44.286L179.63 37.2695C179.812 36.8595 179.903 36.5405 179.948 36.3127C179.994 36.0849 180.039 35.9027 180.039 35.6749C180.039 35.4015 179.948 35.1737 179.766 35.0826C179.584 34.9459 179.266 34.9003 178.765 34.9003V34.2625H182.677V34.9003C182.45 34.9459 182.222 34.9914 182.041 35.037C181.859 35.0826 181.722 35.1737 181.586 35.2648C181.449 35.3559 181.313 35.4926 181.222 35.6293C181.131 35.766 181.04 35.9938 180.903 36.2216L176.537 46.9286H175.991L171.806 36.8595C171.669 36.5405 171.533 36.2672 171.396 36.0394C171.26 35.8116 171.124 35.6293 170.942 35.4471C170.76 35.3104 170.578 35.1737 170.396 35.1281C170.168 35.037 169.941 34.9914 169.668 34.9914V34.3536H174.944V34.9914C174.626 34.9914 174.399 34.9914 174.217 35.037C174.035 35.0826 173.898 35.1281 173.762 35.1737C173.671 35.2192 173.58 35.3104 173.534 35.4015C173.489 35.4926 173.489 35.5837 173.489 35.6749C173.489 35.8116 173.534 35.9938 173.58 36.2216C173.625 36.4039 173.716 36.7228 173.898 37.0873L176.764 44.286Z" fill="#003B60"/>
                                                <path d="M186.771 39.9121C187.362 39.9121 187.862 39.8665 188.226 39.821C188.636 39.7298 188.954 39.6387 189.181 39.502C189.409 39.3653 189.591 39.1375 189.682 38.9097C189.773 38.6819 189.818 38.4085 189.818 38.0896H190.364V42.5091H189.818C189.818 42.1902 189.773 41.9168 189.682 41.689C189.591 41.4612 189.409 41.2334 189.181 41.0967C188.954 40.96 188.636 40.8233 188.226 40.7322C187.817 40.6411 187.317 40.5955 186.725 40.5955V44.2405C186.725 44.6049 186.771 44.8783 186.862 45.1061C186.953 45.3339 187.089 45.5162 187.317 45.6529C187.544 45.7895 187.817 45.8807 188.135 45.9718C188.499 46.0174 188.909 46.0629 189.409 46.0629C190 46.0629 190.455 46.0174 190.865 45.9262C191.274 45.8351 191.592 45.6984 191.865 45.5162C192.138 45.3339 192.366 45.0606 192.502 44.7416C192.684 44.4227 192.82 44.0126 192.911 43.557H193.503L193.275 46.7463H183.223V46.154C183.587 46.154 183.905 46.1085 184.132 46.0629C184.36 46.0174 184.542 45.9262 184.678 45.7895C184.815 45.6529 184.906 45.4706 184.951 45.2428C184.997 45.015 184.997 44.6961 184.997 44.3316V36.7683C184.997 36.4038 184.997 36.0849 184.951 35.8571C184.906 35.6293 184.86 35.447 184.724 35.3103C184.587 35.1737 184.451 35.0825 184.223 35.037C183.996 34.9914 183.723 34.9458 183.405 34.9458V34.308H192.729L192.866 37.1784H192.32C192.275 36.7683 192.138 36.4038 192.002 36.1305C191.865 35.8571 191.638 35.6293 191.41 35.4926C191.137 35.3103 190.819 35.2192 190.455 35.1737C190.046 35.1281 189.591 35.0825 189.045 35.0825H186.998C186.816 35.0825 186.725 35.1737 186.725 35.3559V39.9121H186.771Z" fill="#003B60"/>
                                                <path d="M204.92 37.4062C204.92 38.2719 204.647 39.0009 204.147 39.5476C203.646 40.1399 202.828 40.5044 201.69 40.6867L205.284 45.0151C205.557 45.3796 205.875 45.6074 206.239 45.7896C206.603 45.9263 207.012 46.063 207.513 46.1541V46.7464H204.374L200.417 41.6435C200.28 41.4612 200.144 41.3245 200.007 41.1879C199.871 41.0967 199.734 41.0056 199.598 40.9145C199.461 40.8689 199.325 40.8234 199.143 40.8234C198.961 40.8234 198.734 40.7778 198.506 40.7778V44.1494C198.506 44.5594 198.552 44.8784 198.597 45.1062C198.643 45.334 198.734 45.5618 198.916 45.6985C199.052 45.8352 199.28 45.9263 199.598 45.9719C199.916 46.0174 200.28 46.063 200.781 46.063V46.6553H195.095V46.063C195.459 46.063 195.777 46.0174 196.004 45.9719C196.232 45.9263 196.414 45.8352 196.55 45.6985C196.687 45.5618 196.778 45.3796 196.823 45.1517C196.869 44.9239 196.869 44.605 196.869 44.2405V36.6773C196.869 36.3128 196.869 35.9938 196.823 35.766C196.778 35.5382 196.732 35.356 196.596 35.2193C196.459 35.0826 196.323 34.9915 196.095 34.9459C195.868 34.9003 195.595 34.8548 195.277 34.8548V34.2169H200.371C201.872 34.2169 203.01 34.4903 203.828 35.037C204.556 35.6749 204.92 36.4494 204.92 37.4062ZM198.506 40.0488H199.643C200.735 40.0488 201.508 39.8666 202.054 39.4565C202.555 39.0465 202.828 38.4086 202.828 37.4974C202.828 36.6317 202.6 35.9938 202.191 35.6293C201.781 35.2648 201.145 35.0826 200.235 35.0826H198.734C198.552 35.0826 198.461 35.1737 198.461 35.356V40.0488H198.506Z" fill="#003B60"/>
                                                <path d="M207.968 42.9648H208.559C208.65 43.4659 208.787 43.876 208.968 44.286C209.15 44.6961 209.423 45.015 209.742 45.2884C210.06 45.5618 210.424 45.744 210.833 45.9263C211.243 46.063 211.698 46.1541 212.198 46.1541C213.017 46.1541 213.608 45.9718 214.109 45.6073C214.563 45.2428 214.791 44.6961 214.791 44.0582C214.791 43.7849 214.745 43.5571 214.654 43.3293C214.563 43.1014 214.427 42.8736 214.2 42.6914C213.972 42.5091 213.699 42.2813 213.335 42.0535C212.971 41.8713 212.516 41.6435 211.971 41.3701C211.288 41.0967 210.742 40.7778 210.288 40.55C209.833 40.2766 209.469 40.0032 209.196 39.7299C208.923 39.4565 208.741 39.1376 208.605 38.8186C208.468 38.4997 208.423 38.1352 208.423 37.6796C208.423 37.1784 208.514 36.7228 208.696 36.3127C208.878 35.9027 209.105 35.5382 209.469 35.2193C209.787 34.9003 210.197 34.6725 210.606 34.4903C211.061 34.308 211.516 34.2625 212.062 34.2625C212.516 34.2625 212.971 34.3536 213.381 34.4903C213.79 34.6269 214.199 34.9003 214.609 35.2193L215.018 34.4903H215.382L215.564 37.7251H214.973C214.7 36.8595 214.336 36.176 213.836 35.766C213.335 35.3559 212.744 35.1281 212.062 35.1281C211.425 35.1281 210.879 35.3104 210.515 35.6293C210.106 35.9482 209.924 36.4039 209.924 36.9506C209.924 37.224 209.969 37.4518 210.06 37.634C210.151 37.8163 210.288 38.0441 210.47 38.2263C210.652 38.4086 210.924 38.5908 211.243 38.7731C211.561 38.9553 211.925 39.1376 212.426 39.3654C213.244 39.7299 213.881 40.0488 214.427 40.3677C214.973 40.6867 215.382 41.0056 215.701 41.279C216.019 41.5979 216.246 41.9168 216.383 42.2358C216.519 42.5547 216.565 42.9648 216.565 43.3748C216.565 43.9216 216.474 44.4227 216.246 44.8783C216.019 45.334 215.746 45.6985 215.337 46.063C214.927 46.4275 214.472 46.6553 213.927 46.8375C213.381 47.0198 212.789 47.1109 212.153 47.1109C211.561 47.1109 210.97 47.0198 210.515 46.8375C210.015 46.6553 209.514 46.3819 209.014 45.9718L208.559 46.7464H208.195L207.968 42.9648Z" fill="#003B60"/>
                                                <path d="M221.659 43.6937C221.659 44.2405 221.659 44.6505 221.705 44.9694C221.75 45.2884 221.841 45.5162 221.932 45.6984C222.069 45.8807 222.251 45.9718 222.478 46.0174C222.705 46.0629 223.024 46.1085 223.388 46.1085V46.7008H218.202V46.1085C218.566 46.1085 218.884 46.0629 219.112 46.0174C219.339 45.9718 219.521 45.8351 219.658 45.6984C219.794 45.5162 219.885 45.2884 219.931 45.015C219.976 44.6961 219.976 44.3316 219.976 43.8304V37.2695C219.976 36.8139 219.976 36.4494 219.931 36.1305C219.885 35.8115 219.84 35.5837 219.703 35.447C219.612 35.2648 219.43 35.1737 219.203 35.0825C218.975 34.9914 218.703 34.9458 218.384 34.9458V34.308H223.297V34.9458C222.933 34.9458 222.66 34.9914 222.478 35.0825C222.296 35.1737 222.114 35.2648 221.978 35.447C221.887 35.6293 221.796 35.8571 221.75 36.176C221.705 36.4949 221.705 36.905 221.705 37.3606V43.6937H221.659Z" fill="#003B60"/>
                                                <path d="M236.852 37.4062H236.17C236.125 36.9506 236.079 36.5405 235.943 36.2216C235.806 35.9026 235.67 35.6748 235.442 35.4926C235.215 35.3103 234.942 35.1737 234.624 35.1281C234.305 35.037 233.896 35.037 233.441 35.037C233.032 35.037 232.713 35.037 232.486 35.0825C232.258 35.0825 232.076 35.1281 231.94 35.1737C231.803 35.2192 231.712 35.2648 231.667 35.3103C231.621 35.3559 231.621 35.447 231.621 35.5382V44.1949C231.621 44.5594 231.667 44.8328 231.712 45.1061C231.758 45.3795 231.849 45.5618 231.985 45.6984C232.122 45.8351 232.349 45.9718 232.622 46.0629C232.895 46.1541 233.259 46.1996 233.714 46.1996V46.7919H227.619V46.1996C228.073 46.1996 228.437 46.1541 228.71 46.0629C228.983 45.9718 229.211 45.8807 229.347 45.6984C229.483 45.5618 229.574 45.3339 229.62 45.1061C229.665 44.8783 229.711 44.5594 229.711 44.1949V35.5382C229.711 35.447 229.711 35.3559 229.665 35.3103C229.62 35.2648 229.574 35.2192 229.438 35.1737C229.347 35.1281 229.165 35.0825 228.983 35.0825C228.756 35.0825 228.483 35.037 228.164 35.037C227.755 35.037 227.346 35.037 226.982 35.0825C226.618 35.1281 226.299 35.2192 226.026 35.3559C225.754 35.4926 225.572 35.766 225.39 36.0849C225.208 36.4038 225.162 36.8594 225.117 37.4062H224.525V34.308H236.716L236.852 37.4062Z" fill="#003B60"/>
                                                <path d="M238.99 36.3127C238.808 36.0393 238.671 35.8115 238.535 35.6293C238.398 35.447 238.262 35.3103 238.125 35.2192C237.989 35.1281 237.807 35.037 237.67 34.9914C237.488 34.9458 237.307 34.9458 237.079 34.9458V34.308H242.174V34.9458C241.628 34.9458 241.264 34.9914 241.036 35.0825C240.809 35.1737 240.718 35.3103 240.718 35.4926C240.718 35.7204 240.855 36.0393 241.082 36.4494L243.584 40.7322H243.629L245.449 37.6796C245.813 37.0873 246.04 36.6316 246.177 36.3127C246.313 35.9938 246.404 35.7204 246.404 35.4926C246.404 35.2648 246.313 35.1281 246.177 35.0825C246.04 34.9914 245.767 34.9458 245.358 34.9458V34.308H249.042V34.9458C248.815 34.9458 248.633 34.9914 248.451 35.037C248.269 35.0825 248.087 35.2192 247.905 35.447C247.723 35.6293 247.496 35.9026 247.268 36.2671C247.041 36.6316 246.768 37.0873 246.404 37.634L243.902 41.8257V43.7393C243.902 44.286 243.902 44.6961 243.948 45.015C243.993 45.3339 244.084 45.5617 244.175 45.744C244.312 45.9262 244.494 46.0174 244.721 46.1085C244.948 46.1541 245.267 46.1996 245.631 46.1996V46.7919H240.4V46.1996C240.809 46.1996 241.082 46.1541 241.309 46.1085C241.537 46.0629 241.719 45.9262 241.855 45.7896C241.992 45.6529 242.083 45.3795 242.128 45.1061C242.174 44.7872 242.174 44.4227 242.174 43.9215V41.9624L238.99 36.3127Z" fill="#003B60"/>
                                            </svg>